<?xml version="1.0" encoding="UTF-8"?>
<svg id="Layer_1" data-name="Layer 1" xmlns="http://www.w3.org/2000/svg" viewBox="0 0 1440 1024">
  <defs>
    <style>
      .cls-1 {
        fill: #cccccb;
        stroke: #fff;
        stroke-miterlimit: 10;
      }
    </style>
  </defs>
  <circle class="cls-1" cx="72" cy="80" r="3"/>
  <circle class="cls-1" cx="72" cy="152" r="3"/>
  <circle class="cls-1" cx="72" cy="224" r="3"/>
  <circle class="cls-1" cx="72" cy="296" r="3"/>
  <circle class="cls-1" cx="72" cy="368" r="3"/>
  <circle class="cls-1" cx="72" cy="440" r="3"/>
  <circle class="cls-1" cx="72" cy="512" r="3"/>
  <circle class="cls-1" cx="72" cy="584" r="3"/>
  <circle class="cls-1" cx="72" cy="656" r="3"/>
  <circle class="cls-1" cx="72" cy="728" r="3"/>
  <circle class="cls-1" cx="72" cy="800" r="3"/>
  <circle class="cls-1" cx="72" cy="872" r="3"/>
  <circle class="cls-1" cx="72" cy="944" r="3"/>
  <circle class="cls-1" cx="144" cy="80" r="3"/>
  <circle class="cls-1" cx="144" cy="152" r="3"/>
  <circle class="cls-1" cx="144" cy="224" r="3"/>
  <circle class="cls-1" cx="144" cy="296" r="3"/>
  <circle class="cls-1" cx="144" cy="368" r="3"/>
  <circle class="cls-1" cx="144" cy="440" r="3"/>
  <circle class="cls-1" cx="144" cy="512" r="3"/>
  <circle class="cls-1" cx="144" cy="584" r="3"/>
  <circle class="cls-1" cx="144" cy="656" r="3"/>
  <circle class="cls-1" cx="144" cy="728" r="3"/>
  <circle class="cls-1" cx="144" cy="800" r="3"/>
  <circle class="cls-1" cx="144" cy="872" r="3"/>
  <circle class="cls-1" cx="144" cy="944" r="3"/>
  <circle class="cls-1" cx="216" cy="80" r="3"/>
  <circle class="cls-1" cx="216" cy="152" r="3"/>
  <circle class="cls-1" cx="216" cy="224" r="3"/>
  <circle class="cls-1" cx="216" cy="296" r="3"/>
  <circle class="cls-1" cx="216" cy="368" r="3"/>
  <circle class="cls-1" cx="216" cy="440" r="3"/>
  <circle class="cls-1" cx="216" cy="512" r="3"/>
  <circle class="cls-1" cx="216" cy="584" r="3"/>
  <circle class="cls-1" cx="216" cy="656" r="3"/>
  <circle class="cls-1" cx="216" cy="728" r="3"/>
  <circle class="cls-1" cx="216" cy="800" r="3"/>
  <circle class="cls-1" cx="216" cy="872" r="3"/>
  <circle class="cls-1" cx="216" cy="944" r="3"/>
  <circle class="cls-1" cx="288" cy="80" r="3"/>
  <circle class="cls-1" cx="288" cy="152" r="3"/>
  <circle class="cls-1" cx="288" cy="224" r="3"/>
  <circle class="cls-1" cx="288" cy="296" r="3"/>
  <circle class="cls-1" cx="288" cy="368" r="3"/>
  <circle class="cls-1" cx="288" cy="440" r="3"/>
  <circle class="cls-1" cx="288" cy="512" r="3"/>
  <circle class="cls-1" cx="288" cy="584" r="3"/>
  <circle class="cls-1" cx="288" cy="656" r="3"/>
  <circle class="cls-1" cx="288" cy="728" r="3"/>
  <circle class="cls-1" cx="288" cy="800" r="3"/>
  <circle class="cls-1" cx="288" cy="872" r="3"/>
  <circle class="cls-1" cx="288" cy="944" r="3"/>
  <circle class="cls-1" cx="360" cy="80" r="3"/>
  <circle class="cls-1" cx="360" cy="152" r="3"/>
  <circle class="cls-1" cx="360" cy="224" r="3"/>
  <circle class="cls-1" cx="360" cy="296" r="3"/>
  <circle class="cls-1" cx="360" cy="368" r="3"/>
  <circle class="cls-1" cx="360" cy="440" r="3"/>
  <circle class="cls-1" cx="360" cy="512" r="3"/>
  <circle class="cls-1" cx="360" cy="584" r="3"/>
  <circle class="cls-1" cx="360" cy="656" r="3"/>
  <circle class="cls-1" cx="360" cy="728" r="3"/>
  <circle class="cls-1" cx="360" cy="800" r="3"/>
  <circle class="cls-1" cx="360" cy="872" r="3"/>
  <circle class="cls-1" cx="360" cy="944" r="3"/>
  <circle class="cls-1" cx="432" cy="80" r="3"/>
  <circle class="cls-1" cx="432" cy="152" r="3"/>
  <circle class="cls-1" cx="432" cy="224" r="3"/>
  <circle class="cls-1" cx="432" cy="296" r="3"/>
  <circle class="cls-1" cx="432" cy="368" r="3"/>
  <circle class="cls-1" cx="432" cy="440" r="3"/>
  <circle class="cls-1" cx="432" cy="512" r="3"/>
  <circle class="cls-1" cx="432" cy="584" r="3"/>
  <circle class="cls-1" cx="432" cy="656" r="3"/>
  <circle class="cls-1" cx="432" cy="728" r="3"/>
  <circle class="cls-1" cx="432" cy="800" r="3"/>
  <circle class="cls-1" cx="432" cy="872" r="3"/>
  <circle class="cls-1" cx="432" cy="944" r="3"/>
  <circle class="cls-1" cx="504" cy="80" r="3"/>
  <circle class="cls-1" cx="504" cy="152" r="3"/>
  <circle class="cls-1" cx="504" cy="224" r="3"/>
  <circle class="cls-1" cx="504" cy="296" r="3"/>
  <circle class="cls-1" cx="504" cy="368" r="3"/>
  <circle class="cls-1" cx="504" cy="440" r="3"/>
  <circle class="cls-1" cx="504" cy="512" r="3"/>
  <circle class="cls-1" cx="504" cy="584" r="3"/>
  <circle class="cls-1" cx="504" cy="656" r="3"/>
  <circle class="cls-1" cx="504" cy="728" r="3"/>
  <circle class="cls-1" cx="504" cy="800" r="3"/>
  <circle class="cls-1" cx="504" cy="872" r="3"/>
  <circle class="cls-1" cx="504" cy="944" r="3"/>
  <circle class="cls-1" cx="576" cy="80" r="3"/>
  <circle class="cls-1" cx="576" cy="152" r="3"/>
  <circle class="cls-1" cx="576" cy="224" r="3"/>
  <circle class="cls-1" cx="576" cy="296" r="3"/>
  <circle class="cls-1" cx="576" cy="368" r="3"/>
  <circle class="cls-1" cx="576" cy="440" r="3"/>
  <circle class="cls-1" cx="576" cy="512" r="3"/>
  <circle class="cls-1" cx="576" cy="584" r="3"/>
  <circle class="cls-1" cx="576" cy="656" r="3"/>
  <circle class="cls-1" cx="576" cy="728" r="3"/>
  <circle class="cls-1" cx="576" cy="800" r="3"/>
  <circle class="cls-1" cx="576" cy="872" r="3"/>
  <circle class="cls-1" cx="576" cy="944" r="3"/>
  <circle class="cls-1" cx="648" cy="80" r="3"/>
  <circle class="cls-1" cx="648" cy="152" r="3"/>
  <circle class="cls-1" cx="648" cy="224" r="3"/>
  <circle class="cls-1" cx="648" cy="296" r="3"/>
  <circle class="cls-1" cx="648" cy="368" r="3"/>
  <circle class="cls-1" cx="648" cy="440" r="3"/>
  <circle class="cls-1" cx="648" cy="512" r="3"/>
  <circle class="cls-1" cx="648" cy="584" r="3"/>
  <circle class="cls-1" cx="648" cy="656" r="3"/>
  <circle class="cls-1" cx="648" cy="728" r="3"/>
  <circle class="cls-1" cx="648" cy="800" r="3"/>
  <circle class="cls-1" cx="648" cy="872" r="3"/>
  <circle class="cls-1" cx="648" cy="944" r="3"/>
  <circle class="cls-1" cx="720" cy="80" r="3"/>
  <circle class="cls-1" cx="720" cy="152" r="3"/>
  <circle class="cls-1" cx="720" cy="224" r="3"/>
  <circle class="cls-1" cx="720" cy="296" r="3"/>
  <circle class="cls-1" cx="720" cy="368" r="3"/>
  <circle class="cls-1" cx="720" cy="440" r="3"/>
  <circle class="cls-1" cx="720" cy="512" r="3"/>
  <circle class="cls-1" cx="720" cy="584" r="3"/>
  <circle class="cls-1" cx="720" cy="656" r="3"/>
  <circle class="cls-1" cx="720" cy="728" r="3"/>
  <circle class="cls-1" cx="720" cy="800" r="3"/>
  <circle class="cls-1" cx="720" cy="872" r="3"/>
  <circle class="cls-1" cx="720" cy="944" r="3"/>
  <circle class="cls-1" cx="792" cy="80" r="3"/>
  <circle class="cls-1" cx="792" cy="152" r="3"/>
  <circle class="cls-1" cx="792" cy="224" r="3"/>
  <circle class="cls-1" cx="792" cy="296" r="3"/>
  <circle class="cls-1" cx="792" cy="368" r="3"/>
  <circle class="cls-1" cx="792" cy="440" r="3"/>
  <circle class="cls-1" cx="792" cy="512" r="3"/>
  <circle class="cls-1" cx="792" cy="584" r="3"/>
  <circle class="cls-1" cx="792" cy="656" r="3"/>
  <circle class="cls-1" cx="792" cy="728" r="3"/>
  <circle class="cls-1" cx="792" cy="800" r="3"/>
  <circle class="cls-1" cx="792" cy="872" r="3"/>
  <circle class="cls-1" cx="792" cy="944" r="3"/>
  <circle class="cls-1" cx="864" cy="80" r="3"/>
  <circle class="cls-1" cx="864" cy="152" r="3"/>
  <circle class="cls-1" cx="864" cy="224" r="3"/>
  <circle class="cls-1" cx="864" cy="296" r="3"/>
  <circle class="cls-1" cx="864" cy="368" r="3"/>
  <circle class="cls-1" cx="864" cy="440" r="3"/>
  <circle class="cls-1" cx="864" cy="512" r="3"/>
  <circle class="cls-1" cx="864" cy="584" r="3"/>
  <circle class="cls-1" cx="864" cy="656" r="3"/>
  <circle class="cls-1" cx="864" cy="728" r="3"/>
  <circle class="cls-1" cx="864" cy="800" r="3"/>
  <circle class="cls-1" cx="864" cy="872" r="3"/>
  <circle class="cls-1" cx="864" cy="944" r="3"/>
  <circle class="cls-1" cx="936" cy="80" r="3"/>
  <circle class="cls-1" cx="936" cy="152" r="3"/>
  <circle class="cls-1" cx="936" cy="224" r="3"/>
  <circle class="cls-1" cx="936" cy="296" r="3"/>
  <circle class="cls-1" cx="936" cy="368" r="3"/>
  <circle class="cls-1" cx="936" cy="440" r="3"/>
  <circle class="cls-1" cx="936" cy="512" r="3"/>
  <circle class="cls-1" cx="936" cy="584" r="3"/>
  <circle class="cls-1" cx="936" cy="656" r="3"/>
  <circle class="cls-1" cx="936" cy="728" r="3"/>
  <circle class="cls-1" cx="936" cy="800" r="3"/>
  <circle class="cls-1" cx="936" cy="872" r="3"/>
  <circle class="cls-1" cx="936" cy="944" r="3"/>
  <circle class="cls-1" cx="1008" cy="80" r="3"/>
  <circle class="cls-1" cx="1008" cy="152" r="3"/>
  <circle class="cls-1" cx="1008" cy="224" r="3"/>
  <circle class="cls-1" cx="1008" cy="296" r="3"/>
  <circle class="cls-1" cx="1008" cy="368" r="3"/>
  <circle class="cls-1" cx="1008" cy="440" r="3"/>
  <circle class="cls-1" cx="1008" cy="512" r="3"/>
  <circle class="cls-1" cx="1008" cy="584" r="3"/>
  <circle class="cls-1" cx="1008" cy="656" r="3"/>
  <circle class="cls-1" cx="1008" cy="728" r="3"/>
  <circle class="cls-1" cx="1008" cy="800" r="3"/>
  <circle class="cls-1" cx="1008" cy="872" r="3"/>
  <circle class="cls-1" cx="1008" cy="944" r="3"/>
  <circle class="cls-1" cx="1080" cy="80" r="3"/>
  <circle class="cls-1" cx="1080" cy="152" r="3"/>
  <circle class="cls-1" cx="1080" cy="224" r="3"/>
  <circle class="cls-1" cx="1080" cy="296" r="3"/>
  <circle class="cls-1" cx="1080" cy="368" r="3"/>
  <circle class="cls-1" cx="1080" cy="440" r="3"/>
  <circle class="cls-1" cx="1080" cy="512" r="3"/>
  <circle class="cls-1" cx="1080" cy="584" r="3"/>
  <circle class="cls-1" cx="1080" cy="656" r="3"/>
  <circle class="cls-1" cx="1080" cy="728" r="3"/>
  <circle class="cls-1" cx="1080" cy="800" r="3"/>
  <circle class="cls-1" cx="1080" cy="872" r="3"/>
  <circle class="cls-1" cx="1080" cy="944" r="3"/>
  <circle class="cls-1" cx="1152" cy="80" r="3"/>
  <circle class="cls-1" cx="1152" cy="152" r="3"/>
  <circle class="cls-1" cx="1152" cy="224" r="3"/>
  <circle class="cls-1" cx="1152" cy="296" r="3"/>
  <circle class="cls-1" cx="1152" cy="368" r="3"/>
  <circle class="cls-1" cx="1152" cy="440" r="3"/>
  <circle class="cls-1" cx="1152" cy="512" r="3"/>
  <circle class="cls-1" cx="1152" cy="584" r="3"/>
  <circle class="cls-1" cx="1152" cy="656" r="3"/>
  <circle class="cls-1" cx="1152" cy="728" r="3"/>
  <circle class="cls-1" cx="1152" cy="800" r="3"/>
  <circle class="cls-1" cx="1152" cy="872" r="3"/>
  <circle class="cls-1" cx="1152" cy="944" r="3"/>
  <circle class="cls-1" cx="1224" cy="80" r="3"/>
  <circle class="cls-1" cx="1224" cy="152" r="3"/>
  <circle class="cls-1" cx="1224" cy="224" r="3"/>
  <circle class="cls-1" cx="1224" cy="296" r="3"/>
  <circle class="cls-1" cx="1224" cy="368" r="3"/>
  <circle class="cls-1" cx="1224" cy="440" r="3"/>
  <circle class="cls-1" cx="1224" cy="512" r="3"/>
  <circle class="cls-1" cx="1224" cy="584" r="3"/>
  <circle class="cls-1" cx="1224" cy="656" r="3"/>
  <circle class="cls-1" cx="1224" cy="728" r="3"/>
  <circle class="cls-1" cx="1224" cy="800" r="3"/>
  <circle class="cls-1" cx="1224" cy="872" r="3"/>
  <circle class="cls-1" cx="1224" cy="944" r="3"/>
  <circle class="cls-1" cx="1296" cy="80" r="3"/>
  <circle class="cls-1" cx="1296" cy="152" r="3"/>
  <circle class="cls-1" cx="1296" cy="224" r="3"/>
  <circle class="cls-1" cx="1296" cy="296" r="3"/>
  <circle class="cls-1" cx="1296" cy="368" r="3"/>
  <circle class="cls-1" cx="1296" cy="440" r="3"/>
  <circle class="cls-1" cx="1296" cy="512" r="3"/>
  <circle class="cls-1" cx="1296" cy="584" r="3"/>
  <circle class="cls-1" cx="1296" cy="656" r="3"/>
  <circle class="cls-1" cx="1296" cy="728" r="3"/>
  <circle class="cls-1" cx="1296" cy="800" r="3"/>
  <circle class="cls-1" cx="1296" cy="872" r="3"/>
  <circle class="cls-1" cx="1296" cy="944" r="3"/>
  <circle class="cls-1" cx="1368" cy="80" r="3"/>
  <circle class="cls-1" cx="1368" cy="152" r="3"/>
  <circle class="cls-1" cx="1368" cy="224" r="3"/>
  <circle class="cls-1" cx="1368" cy="296" r="3"/>
  <circle class="cls-1" cx="1368" cy="368" r="3"/>
  <circle class="cls-1" cx="1368" cy="440" r="3"/>
  <circle class="cls-1" cx="1368" cy="512" r="3"/>
  <circle class="cls-1" cx="1368" cy="584" r="3"/>
  <circle class="cls-1" cx="1368" cy="656" r="3"/>
  <circle class="cls-1" cx="1368" cy="728" r="3"/>
  <circle class="cls-1" cx="1368" cy="800" r="3"/>
  <circle class="cls-1" cx="1368" cy="872" r="3"/>
  <circle class="cls-1" cx="1368" cy="944" r="3"/>
</svg>